# xmcd
#
# Track frame offsets: 
#        150
#        11407
#        29505
#        38560
#        49737
#        62797
#        74265
#        86490
#        98825
#        110415
#        122665
#        139580
#        153797
#        163715
#
# Disc length: 2394 seconds
#
# Revision: 3
# Processed by: cddbd v1.5.1PL0 Copyright (c) Steve Scherf et al.
# Submitted via: ExactAudioCopy v0.95a5
#
DISCID=ad09580e
DTITLE=Adoniran Barbosa - [Adoniran Barbosa] Série Bis [CD2]
DYEAR=2000
DGENRE=MPB
TTITLE0=O samba do Arnesto
TTITLE1=Iracema
TTITLE2=Tocar na banda
TTITLE3=Conselho de mulher
TTITLE4=Bom dia Tristeza
TTITLE5=Triste Margarida (Samba do Metrô)
TTITLE6=Viaduto Santa Efigênia
TTITLE7=Abrigo de vagabundo
TTITLE8=Já fui uma brasa
TTITLE9=Despejo na favela
TTITLE10=Fica mais um pouco amor
TTITLE11=Acende o candieiro
TTITLE12=Malvina
TTITLE13=Vide verso meu endereço
EXTD=
EXTT0=
EXTT1=
EXTT2=
EXTT3=
EXTT4=
EXTT5=
EXTT6=
EXTT7=
EXTT8=
EXTT9=
EXTT10=
EXTT11=
EXTT12=
EXTT13=
PLAYORDER=
